<?xml version="1.0" standalone="no"?>
<!DOCTYPE svg PUBLIC "-//W3C//DTD SVG 20010904//EN"
 "http://www.w3.org/TR/2001/REC-SVG-20010904/DTD/svg10.dtd">
<svg version="1.0" xmlns="http://www.w3.org/2000/svg"
 width="2000.000000pt" height="2000.000000pt" viewBox="0 0 2000.000000 2000.000000"
 preserveAspectRatio="xMidYMid meet">

<g transform="translate(0.000000,2000.000000) scale(0.100000,-0.100000)"
fill="#000000" stroke="none">
<path d="M9693 15389 c-1762 -112 -3372 -1082 -4290 -2584 -638 -1043 -905
-2251 -767 -3465 166 -1463 927 -2804 2099 -3701 956 -731 2109 -1120 3315
-1119 961 1 1924 263 2745 748 799 473 1467 1141 1937 1937 849 1440 983 3216
360 4775 -181 453 -412 862 -712 1259 -398 526 -888 977 -1443 1326 -967 608
-2104 897 -3244 824z m777 -384 c1202 -106 2300 -616 3145 -1460 814 -812
1316 -1848 1456 -3000 26 -220 37 -727 20 -953 -94 -1228 -608 -2349 -1471
-3212 -859 -859 -1986 -1377 -3199 -1470 -325 -25 -793 -8 -1121 40 -1750 256
-3242 1416 -3935 3060 -151 359 -281 832 -339 1235 -62 425 -62 1005 0 1430
235 1634 1244 3044 2719 3799 576 296 1240 483 1890 535 185 14 654 12 835 -4z"/>
<path d="M9445 13120 c-500 -104 -960 -315 -1367 -630 -149 -115 -414 -376
-528 -520 -351 -444 -572 -944 -659 -1491 -33 -202 -54 -547 -31 -494 5 11 34
85 65 165 157 403 359 723 533 842 200 138 480 58 584 -168 l23 -49 0 -1290 0
-1290 -22 -41 c-47 -88 -136 -134 -259 -134 -60 0 -236 29 -278 46 -19 7 -19
6 1 -22 98 -136 341 -389 498 -519 553 -456 1195 -708 1919 -751 l118 -7 440
439 439 439 22 -26 c75 -91 493 -549 500 -549 19 0 254 126 371 199 544 341
967 825 1231 1408 56 124 134 341 161 447 8 34 18 70 21 81 3 11 -64 -48 -148
-130 -335 -327 -551 -487 -760 -562 -59 -21 -93 -26 -164 -27 -81 0 -97 3
-155 31 -36 17 -77 42 -92 55 l-27 23 -11 1281 c-8 926 -8 1311 0 1390 37 369
185 720 455 1079 110 146 264 315 379 417 51 46 89 84 85 86 -20 8 -305 -58
-474 -110 -494 -150 -1005 -473 -1381 -872 l-108 -115 -25 18 c-40 28 -129 72
-191 93 -109 37 -313 59 -398 42 l-31 -6 57 -43 c134 -98 265 -303 312 -489
20 -77 20 -110 20 -1405 l0 -1326 -103 -76 c-244 -180 -454 -279 -624 -295
-182 -17 -360 76 -457 239 l-36 62 0 1588 c0 874 -3 1587 -7 1585 -62 -32 -96
-41 -153 -42 -114 -2 -192 64 -241 205 -20 56 -23 85 -23 224 -1 175 8 223 64
359 106 253 290 455 597 653 25 17 16 15 -142 -17z"/>
</g>
</svg>
